<svg xmlns="http://www.w3.org/2000/svg" viewBox="0 0 25 23.6"><defs><style>.cls-1{fill:#fff;}</style></defs><g id="Layer_2" data-name="Layer 2"><g id="Layer_1-2" data-name="Layer 1"><path class="cls-1" d="M5,22.6a4,4,0,0,1-4-4V11A4,4,0,0,1,2.5,7.88l7.51-6a4,4,0,0,1,5,0l7.51,6A4,4,0,0,1,24,11v7.61a4,4,0,0,1-4,4Z"/><path d="M12.5,2a3,3,0,0,1,1.87.65l7.51,6A3,3,0,0,1,23,11v7.61a3,3,0,0,1-3,3H5a3,3,0,0,1-3-3V11A3,3,0,0,1,3.12,8.66l7.51-6A3,3,0,0,1,12.5,2m0-2A5,5,0,0,0,9.38,1.09l-7.51,6A5,5,0,0,0,0,11v7.61a5,5,0,0,0,5,5H20a5,5,0,0,0,5-5V11a5,5,0,0,0-1.87-3.9l-7.51-6A5,5,0,0,0,12.5,0Z"/></g></g></svg>