<svg xmlns="http://www.w3.org/2000/svg" viewBox="0 0 17.73 23.58"><defs><style>.cls-1{fill:#fff;}</style></defs><g id="Layer_2" data-name="Layer 2"><g id="Layer_1-2" data-name="Layer 1"><path class="cls-1" d="M15.3,22.58a1.39,1.39,0,0,1-1.25-.7l-3.32-6.27a2.11,2.11,0,0,0-3.73,0L3.68,21.88a1.39,1.39,0,0,1-1.25.7,1.67,1.67,0,0,1-1-.35A1,1,0,0,1,1,21.4V2.18A1.31,1.31,0,0,1,2.4,1H15.33a1.31,1.31,0,0,1,1.4,1.18V21.4C16.73,22.26,15.86,22.58,15.3,22.58Z"/><path d="M15.33,2a.44.44,0,0,1,.4.18V21.43a.59.59,0,0,1-.43.15c-.27,0-.34-.13-.36-.17l-3.33-6.27a3.11,3.11,0,0,0-5.49,0L2.8,21.41s-.09.17-.37.17A.49.49,0,0,1,2,21.4V2.18A.46.46,0,0,1,2.4,2H15.33m0-2H2.4A2.3,2.3,0,0,0,0,2.18V21.4a2.28,2.28,0,0,0,2.43,2.18,2.36,2.36,0,0,0,2.14-1.24l3.32-6.26a1.1,1.1,0,0,1,1-.59,1.11,1.11,0,0,1,1,.59l3.32,6.26a2.33,2.33,0,0,0,2.13,1.24,2.28,2.28,0,0,0,2.43-2.18V2.18A2.3,2.3,0,0,0,15.33,0Z"/></g></g></svg>