<svg xmlns="http://www.w3.org/2000/svg" viewBox="0 0 22.23 23.64"><defs><style>.cls-1{fill:#fff;}.cls-2{fill:none;stroke:#000;stroke-linecap:round;stroke-miterlimit:10;stroke-width:2px;}</style></defs><g id="Layer_2" data-name="Layer 2"><g id="Layer_1-2" data-name="Layer 1"><path class="cls-1" d="M3.1,22.64a2.08,2.08,0,0,1-1.57-.7A2.1,2.1,0,0,1,1,20.3L2.29,9.49A2.08,2.08,0,0,1,4.37,7.64H17.86a2.1,2.1,0,0,1,2.08,1.85L21.22,20.3a2.1,2.1,0,0,1-.52,1.64,2.08,2.08,0,0,1-1.57.7Z"/><path d="M17.86,8.64a1.09,1.09,0,0,1,1.09,1l1.27,10.81a1.1,1.1,0,0,1-1.09,1.22H3.1A1.1,1.1,0,0,1,2,20.42L3.28,9.61a1.09,1.09,0,0,1,1.09-1H17.86m0-2H4.37A3.1,3.1,0,0,0,1.29,9.37L0,20.18A3.1,3.1,0,0,0,3.1,23.64h16a3.1,3.1,0,0,0,3.08-3.46L20.94,9.37a3.1,3.1,0,0,0-3.08-2.73Z"/><path class="cls-2" d="M6.58,11.33C6.58,7.53,6.58,1,11.11,1s4.54,6.53,4.54,10.33"/></g></g></svg>