<?xml version="1.0" encoding="UTF-8"?><svg xmlns="http://www.w3.org/2000/svg" viewBox="0 0 740.74 267.68"><defs><style>.d{fill:#f8c411;}.e{fill:#fff;}</style></defs><g id="a"/><g id="b"><g id="c"><g><g><path class="d" d="M159.11,82.36c-2.88,2.79-6.48,4.19-10.81,4.19-17.78-2.27-32.55-3.41-44.31-3.41s-19.45,.31-21.62,.93c-1.93,.83-2.88,2.59-2.88,5.27,0,2.48,1.2,4.34,3.6,5.58,1.92,1.45,9.12,3.72,21.62,6.82,11.04,2.9,20.36,5.69,27.92,8.37,7.57,2.69,14.77,6.88,21.62,12.56,6.84,5.69,11.47,12.98,13.87,21.86,1.92,8.68,2.88,19.54,2.88,32.56,0,28.74-6.43,49-19.27,60.78-12.85,11.78-31.88,17.68-57.1,17.68s-49.24-3-69.89-8.99c-3.12-.82-5.71-2.84-7.75-6.05-2.04-3.2-3.06-6.77-3.06-10.7l1.44-29.46c.48-4.13,2.04-7.7,4.68-10.7,2.64-2.99,5.76-4.5,9.37-4.5,23.06,3.52,42.87,5.27,59.44,5.27,9.85,0,14.77-2.58,14.77-7.75,0-2.27-1.08-4.03-3.24-5.27-2.16-.82-8.41-2.17-18.73-4.03-26.9-4.96-45.16-12.82-54.76-23.57-9.85-10.33-14.77-27.6-14.77-51.79,0-20.47,2.82-36.54,8.47-48.22,5.64-11.68,13.99-19.9,25.04-24.65,11.04-4.75,25.34-7.13,42.87-7.13,19.93,0,41.31,2.17,64.13,6.51h.36c3.36,.62,6.12,2.53,8.29,5.74,2.16,3.21,3.24,6.77,3.24,10.7l-.72,29.77c-.24,4.96-1.8,8.84-4.68,11.63Z"/><path class="d" d="M94.62,267.68c-26.91,0-51.52-3.18-73.15-9.44-6-1.63-11.09-5.51-14.72-11.23-3.28-5.14-4.95-10.94-4.95-17.2v-.59l1.47-29.86,.05-.4c.77-6.62,3.34-12.45,7.64-17.33,4.96-5.62,11.34-8.6,18.46-8.6h.92l.91,.14c3.95,.6,7.8,1.15,11.56,1.65-10.64-4.6-18.86-10.18-24.82-16.79C5.88,145.24,0,125.61,0,98.02c0-22.53,3.16-40.03,9.67-53.5,6.92-14.32,17.4-24.59,31.16-30.51,12.52-5.39,28.56-8.12,47.67-8.12,20.27,0,42.22,2.19,65.26,6.51h.33l1.09,.2c6.57,1.21,12.15,4.97,16.13,10.87,3.53,5.24,5.32,11.12,5.32,17.48v.29l-.74,30.07c-.49,10.11-4.82,16.32-8.36,19.75-5.14,4.97-11.79,7.6-19.24,7.6h-.77l-.77-.1c-5.51-.7-10.73-1.3-15.64-1.78,1.95,.64,3.8,1.27,5.56,1.89,8.88,3.16,17.4,8.09,25.31,14.66,8.77,7.29,14.77,16.72,17.83,28.02l.13,.55c2.1,9.51,3.17,21.34,3.17,35.18,0,32.14-7.81,55.59-23.2,69.71-15.1,13.85-37.07,20.87-65.3,20.87ZM27.89,234.86l.23,.06c19.46,5.65,41.84,8.51,66.51,8.51,21.97,0,38.42-4.87,48.91-14.49,10.18-9.34,15.34-26.78,15.34-51.85,0-11.93-.85-21.91-2.53-29.66-1.77-6.35-4.99-11.41-9.84-15.44-5.71-4.74-11.74-8.26-17.93-10.46-7.18-2.55-16.22-5.26-26.86-8.05-17.39-4.32-22.36-6.48-25.04-8.27-5.92-3.41-9.3-9.14-9.3-15.88,0-7.52,3.82-13.66,10.22-16.41l.71-.3,.74-.21c2.47-.71,6.43-1.4,24.96-1.4,11.99,0,27.09,1.14,44.9,3.39,1.12-.1,1.5-.47,1.79-.75,.7-.68,.93-2.19,1-3.38l.71-29.42c-.02-1.46-.38-2.64-1.17-3.81-.17-.25-.31-.42-.4-.51l-.46-.09c-21.97-4.18-42.78-6.3-61.86-6.3-15.79,0-28.6,2.07-38.08,6.14-8.36,3.6-14.55,9.75-18.92,18.79-4.82,9.97-7.26,24.42-7.26,42.95,0,20.86,3.84,35.47,11.42,43.42l.27,.29c5.31,5.94,17.93,14.19,47.92,19.72,14.56,2.62,18.72,3.81,20.85,4.62l.89,.34,.83,.48c5.93,3.4,9.33,9.16,9.33,15.79,0,4.66-1.94,19.88-26.89,19.88-16.69,0-36.69-1.73-59.47-5.14-.07,.07-.15,.15-.24,.26-.94,1.07-1.47,2.23-1.69,3.75l-1.4,28.63c.03,1.52,.39,2.74,1.16,3.94,.33,.51,.57,.77,.68,.86Z"/></g><g><path class="d" d="M252.06,205.63c-1.68,2.07-2.52,4.55-2.52,7.44v27.29c0,2.9-.9,5.38-2.7,7.44-1.8,2.07-3.91,3.1-6.31,3.1h-49c-2.4,0-4.5-1.03-6.31-3.1-1.8-2.06-2.7-4.54-2.7-7.44V32.9c0-2.89,.9-5.37,2.7-7.44,1.8-2.06,3.9-3.1,6.31-3.1h66.65c20.17,0,36.57,2.48,49.18,7.44,12.61,4.96,22.21,13.95,28.82,26.98,6.6,13.02,9.91,31.22,9.91,54.58s-3.3,41.71-9.91,55.04c-6.61,13.33-16.27,22.69-29,28.06-12.73,5.38-29.06,8.06-49,8.06-2.4,0-4.45,1.04-6.12,3.1Zm3.24-65.74c8.4,0,14.35-2.22,17.83-6.67,3.48-4.44,5.22-11.73,5.22-21.86s-1.68-17.37-5.04-21.09c-3.37-3.72-9.37-5.58-18.01-5.58h-5.76v55.2h5.76Z"/><path class="d" d="M240.53,263.03h-49c-5.88,0-11.37-2.58-15.45-7.26-3.71-4.26-5.68-9.59-5.68-15.4V32.9c0-5.81,1.96-11.13,5.68-15.4,4.09-4.69,9.57-7.26,15.45-7.26h66.65c21.91,0,39.45,2.71,53.62,8.28,15.39,6.06,27.23,17.08,35.19,32.77,7.55,14.89,11.22,34.54,11.22,60.06s-3.65,45.25-11.17,60.42c-7.91,15.96-19.73,27.34-35.15,33.85-13.39,5.66-30.28,8.68-50.23,8.99v25.74c0,5.82-1.97,11.14-5.69,15.41-4.07,4.68-9.56,7.26-15.44,7.26Zm-45.88-24.25h42.76v-25.71c0-5.66,1.81-10.88,5.24-15.09h0c3.97-4.89,9.49-7.58,15.53-7.58,18.22,0,33.12-2.39,44.28-7.11,10.05-4.25,17.53-11.53,22.86-22.28,5.74-11.58,8.65-28.29,8.65-49.66s-2.89-37.85-8.6-49.1c-5.27-10.38-12.61-17.31-22.45-21.18-11.13-4.38-26.18-6.6-44.74-6.6h-63.53V238.78Zm0-205.98h0Zm60.65,119.21h-17.89V72.57h17.89c12.17,0,21.26,3.22,27,9.57,5.58,6.18,8.18,15.46,8.18,29.22,0,13.04-2.55,22.63-7.8,29.34-5.88,7.51-15.09,11.32-27.38,11.32Zm6.36-54.63v29.54c.9-.32,1.57-.71,1.93-1.18,.62-.79,2.64-4.17,2.64-14.39s-1.92-12.96-1.95-13h0s-.65-.53-2.62-.97Z"/></g><g><path class="d" d="M362.3,26.39c2.16-2.68,4.8-4.03,7.93-4.03h44.31c3.12,0,5.82,1.35,8.11,4.03,2.28,2.69,3.42,5.79,3.42,9.3V237.26c0,3.72-1.14,6.93-3.42,9.61-2.29,2.69-4.99,4.03-8.11,4.03h-44.31c-3.12,0-5.76-1.34-7.93-4.03-2.16-2.68-3.24-5.89-3.24-9.61V35.69c0-3.51,1.08-6.61,3.24-9.3Z"/><path class="d" d="M414.53,263.03h-44.31c-6.77,0-12.94-3.04-17.37-8.56-3.87-4.81-5.92-10.76-5.92-17.21V35.69c0-6.24,2.04-12.08,5.91-16.9h.01c4.44-5.53,10.61-8.56,17.37-8.56h44.31c6.72,0,12.71,2.87,17.34,8.29,4.14,4.89,6.32,10.81,6.32,17.17V237.26c0,6.57-2.18,12.6-6.3,17.46-4.62,5.44-10.62,8.31-17.35,8.31Zm-43.11-24.25h42.16c.2-.3,.35-.71,.35-1.52V35.69c0-.52-.08-.84-.35-1.21h-42.18c-.16,.31-.24,.67-.24,1.21V237.26c0,.75,.11,1.21,.25,1.52Z"/></g><g><path class="d" d="M446.96,246.72c-2.4-2.79-3.6-6.15-3.6-10.08V36.62c0-3.93,1.2-7.29,3.6-10.08,2.4-2.79,5.28-4.19,8.65-4.19h42.51c3.36,0,6.24,1.4,8.65,4.19,2.4,2.79,3.6,6.15,3.6,10.08V172.14c0,3.93,1.2,7.29,3.6,10.08,2.4,2.79,5.16,4.19,8.29,4.19h38.55c3.36,0,6.24,1.4,8.65,4.19,2.4,2.79,3.6,6.15,3.6,10.08v35.97c0,3.93-1.21,7.29-3.6,10.08-2.4,2.79-5.28,4.19-8.65,4.19h-105.2c-3.37,0-6.25-1.4-8.65-4.19Z"/><path class="d" d="M560.8,263.03h-105.2c-6.94,0-13.11-2.9-17.83-8.4h0c-4.28-4.97-6.54-11.19-6.54-17.99V36.62c0-6.8,2.26-13.02,6.54-17.99,4.72-5.49,10.89-8.4,17.83-8.4h42.51c6.93,0,13.1,2.9,17.83,8.4,4.28,4.98,6.54,11.2,6.54,17.99V172.14c0,1.26,.32,1.75,.64,2.14h37.67c6.93,0,13.1,2.9,17.83,8.4,4.28,4.99,6.54,11.2,6.54,17.99v35.97c0,6.79-2.26,13.01-6.53,17.98-4.74,5.51-10.91,8.41-17.84,8.41Zm-104.42-23.98h0Zm-.26-.27h104.16c.33-.38,.64-.89,.64-2.14v-35.97c0-1.25-.31-1.75-.64-2.14h-38.03c-4.68,0-11.51-1.46-17.48-8.41-4.27-4.96-6.53-11.18-6.53-17.98V36.62c0-1.25-.31-1.75-.64-2.14h-41.48c-.33,.4-.64,.89-.64,2.14V236.64c0,1.26,.31,1.75,.64,2.14Zm103.91-40.52h0ZM456.38,34.21h0Z"/></g><g><path class="d" d="M587.82,246.72c-2.4-2.79-3.6-6.15-3.6-10.08V36.62c0-3.93,1.2-7.29,3.6-10.08,2.4-2.79,5.28-4.19,8.65-4.19h42.51c3.36,0,6.24,1.4,8.65,4.19,2.4,2.79,3.6,6.15,3.6,10.08V172.14c0,3.93,1.2,7.29,3.6,10.08,2.4,2.79,5.16,4.19,8.29,4.19h38.55c3.36,0,6.24,1.4,8.65,4.19,2.4,2.79,3.6,6.15,3.6,10.08v35.97c0,3.93-1.21,7.29-3.6,10.08-2.4,2.79-5.28,4.19-8.65,4.19h-105.2c-3.37,0-6.25-1.4-8.65-4.19Z"/><path class="d" d="M701.66,263.03h-105.2c-6.95,0-13.12-2.91-17.84-8.41-4.27-4.97-6.53-11.18-6.53-17.98V36.62c0-6.8,2.26-13.02,6.54-17.99,4.72-5.49,10.89-8.4,17.83-8.4h42.51c6.94,0,13.1,2.9,17.83,8.4,4.28,4.98,6.54,11.2,6.54,17.99V172.14c0,1.26,.32,1.75,.64,2.14h37.67c6.93,0,13.1,2.9,17.83,8.4,4.28,4.98,6.54,11.2,6.54,17.99v35.97c0,6.79-2.26,13.01-6.53,17.98-4.74,5.5-10.91,8.41-17.84,8.41Zm-104.68-24.25h104.16c.33-.38,.64-.89,.64-2.14v-35.97c0-1.25-.31-1.75-.64-2.14h-38.03c-4.68,0-11.51-1.46-17.48-8.41-4.27-4.96-6.53-11.18-6.53-17.98V36.62c0-1.25-.31-1.75-.64-2.14h-41.48c-.33,.4-.64,.89-.64,2.14V236.64c0,1.26,.31,1.75,.64,2.14Zm103.91-40.52h0Z"/></g></g><g><path class="e" d="M185.94,64.35c-2.88,2.79-6.48,4.19-10.81,4.19-17.78-2.27-32.55-3.41-44.31-3.41s-19.45,.31-21.62,.93c-1.93,.83-2.88,2.59-2.88,5.27,0,2.48,1.2,4.34,3.6,5.58,1.92,1.45,9.12,3.72,21.62,6.82,11.04,2.9,20.36,5.69,27.92,8.37,7.57,2.69,14.77,6.88,21.62,12.56,6.84,5.69,11.47,12.98,13.87,21.86,1.92,8.68,2.88,19.54,2.88,32.56,0,28.74-6.43,49-19.27,60.78-12.85,11.78-31.88,17.68-57.1,17.68s-49.24-3-69.89-8.99c-3.12-.82-5.71-2.84-7.75-6.05-2.04-3.2-3.06-6.77-3.06-10.7l1.44-29.46c.48-4.13,2.04-7.7,4.68-10.7,2.64-2.99,5.76-4.5,9.37-4.5,23.06,3.52,42.87,5.27,59.44,5.27,9.85,0,14.77-2.58,14.77-7.75,0-2.27-1.08-4.03-3.24-5.27-2.16-.82-8.41-2.17-18.73-4.03-26.9-4.96-45.16-12.82-54.76-23.57-9.85-10.33-14.77-27.6-14.77-51.79,0-20.47,2.82-36.54,8.47-48.22,5.64-11.68,13.99-19.9,25.04-24.65C83.5,2.38,97.79,0,115.33,0c19.93,0,41.31,2.17,64.13,6.51h.36c3.36,.62,6.12,2.53,8.29,5.74,2.16,3.21,3.24,6.77,3.24,10.7l-.72,29.77c-.24,4.96-1.8,8.84-4.68,11.63Z"/><path class="e" d="M278.88,187.61c-1.68,2.07-2.52,4.55-2.52,7.44v27.29c0,2.9-.9,5.38-2.7,7.44-1.8,2.07-3.91,3.1-6.31,3.1h-49c-2.4,0-4.5-1.03-6.31-3.1-1.8-2.06-2.7-4.54-2.7-7.44V14.88c0-2.89,.9-5.37,2.7-7.44,1.8-2.06,3.9-3.1,6.31-3.1h66.65c20.17,0,36.57,2.48,49.18,7.44,12.61,4.96,22.21,13.95,28.82,26.98,6.6,13.02,9.91,31.22,9.91,54.58s-3.3,41.71-9.91,55.04c-6.61,13.33-16.27,22.69-29,28.06-12.73,5.38-29.06,8.06-49,8.06-2.4,0-4.45,1.04-6.12,3.1Zm3.24-65.74c8.4,0,14.35-2.22,17.83-6.67,3.48-4.44,5.22-11.73,5.22-21.86s-1.68-17.37-5.04-21.09c-3.37-3.72-9.37-5.58-18.01-5.58h-5.76v55.2h5.76Z"/><path class="e" d="M389.12,8.37c2.16-2.68,4.8-4.03,7.93-4.03h44.31c3.12,0,5.82,1.35,8.11,4.03,2.28,2.69,3.42,5.79,3.42,9.3V219.24c0,3.72-1.14,6.93-3.42,9.61-2.29,2.69-4.99,4.03-8.11,4.03h-44.31c-3.12,0-5.76-1.34-7.93-4.03-2.16-2.68-3.24-5.89-3.24-9.61V17.68c0-3.51,1.08-6.61,3.24-9.3Z"/><path class="e" d="M473.78,228.7c-2.4-2.79-3.6-6.15-3.6-10.08V18.61c0-3.93,1.2-7.29,3.6-10.08,2.4-2.79,5.28-4.19,8.65-4.19h42.51c3.36,0,6.24,1.4,8.65,4.19,2.4,2.79,3.6,6.15,3.6,10.08V154.12c0,3.93,1.2,7.29,3.6,10.08,2.4,2.79,5.16,4.19,8.29,4.19h38.55c3.36,0,6.24,1.4,8.65,4.19,2.4,2.79,3.6,6.15,3.6,10.08v35.97c0,3.93-1.21,7.29-3.6,10.08-2.4,2.79-5.28,4.19-8.65,4.19h-105.2c-3.37,0-6.25-1.4-8.65-4.19Z"/><path class="e" d="M614.64,228.7c-2.4-2.79-3.6-6.15-3.6-10.08V18.61c0-3.93,1.2-7.29,3.6-10.08,2.4-2.79,5.28-4.19,8.65-4.19h42.51c3.36,0,6.24,1.4,8.65,4.19,2.4,2.79,3.6,6.15,3.6,10.08V154.12c0,3.93,1.2,7.29,3.6,10.08,2.4,2.79,5.16,4.19,8.29,4.19h38.55c3.36,0,6.24,1.4,8.65,4.19,2.4,2.79,3.6,6.15,3.6,10.08v35.97c0,3.93-1.21,7.29-3.6,10.08-2.4,2.79-5.28,4.19-8.65,4.19h-105.2c-3.37,0-6.25-1.4-8.65-4.19Z"/></g></g></g></svg>