<?xml version="1.0" encoding="UTF-8"?><svg xmlns="http://www.w3.org/2000/svg" viewBox="0 0 513.57 513.57"><defs><style>.d{fill:#ee5625;}.e{fill:#f0ece7;}</style></defs><g id="a"/><g id="b"><g id="c"><rect class="e" x="0" y="0" width="513.57" height="513.57" rx="134.7" ry="134.7"/><path class="d" d="M439.15,257.79h-1.68c-.39,0-.74,.22-.91,.57-18.23,37.97-40.46,95.75-103.42,95.75-23.9,0-35.15-10.19-35.15-30.23V152.34c0-19.82,12.04-27.26,34.41-33.54,.43-.12,.74-.52,.74-.97v-1.75c0-.55-.45-1-1-1h-121.02c-.55,0-1,.45-1,1v1.75c0,.45,.31,.84,.74,.97,22.37,6.28,34.41,13.72,34.41,33.54v72.45c-29.89-9.82-39.69-34.27-40.8-76.28-.01-.54-.46-.98-1-.98s-1,.45-1,1.01c-.15,42.23-10.05,67.03-41.36,76.66v-72.85c0-19.82,12.04-27.26,34.41-33.54,.43-.12,.74-.52,.74-.97v-1.75c0-.55-.45-1-1-1H74.23c-.55,0-1,.45-1,1v1.75c0,.45,.31,.84,.74,.97,22.37,6.28,34.41,13.72,34.41,33.54v173.64c0,52.61-6.91,68.27-34.41,76.07-.43,.12-.74,.51-.74,.96v1.74c0,.56,.46,1.02,1.02,1.01,51.82-.48,86.86-37.61,86.86-92.79v-75.84c31.31,9.63,41.21,34.43,41.36,76.66,0,.55,.45,1.01,1,1.01s.99-.44,1-.98c1.11-42.01,10.92-66.47,40.8-76.28v86.34c0,19.82-12.04,27.26-34.41,33.54-.43,.12-.74,.52-.74,.97v1.75c0,.55,.45,1,1,1h154.71c24.79,0,40.91,1.39,51.81,7.27,.14,.08,.3,.12,.46,.12h1.72c.49,0,.9-.35,.99-.83l19.33-108.71c.11-.62-.36-1.18-.99-1.18Z"/></g></g></svg>