<svg xmlns="http://www.w3.org/2000/svg" viewBox="0 0 655.9 656.4"><defs><style>.cls-1{fill:#ee5625;}.cls-2{fill:#fff;}</style></defs><g id="Layer_2" data-name="Layer 2"><g id="Layer_1-2" data-name="Layer 1"><path class="cls-1" d="M40.9,207.19l7.79,3.5-4,8.89L21.89,209.34l4-8.89,7.79,3.5,6-13.36-7.79-3.49,4-8.91,22.8,10.24-4,8.9-7.79-3.49Z"/><path class="cls-1" d="M66,176.14,51.3,167.35l-6,9.93-6.79-4.08,17-28.23,6.8,4.08-6,9.94L71,167.78Z"/><path class="cls-1" d="M58.48,140l7.64-9.52,15.85.22-3.64-15.44L86,105.73l19.5,15.65-6.1,7.6L89,120.64l4.29,16-3,3.8-16.52-.73L84.08,148l-6.1,7.6Z"/><path class="cls-1" d="M99.06,93.29l11.73,12.42L125,92.31l5.45,5.76-21.28,20.09L92,100Z"/><path class="cls-1" d="M150.31,64.2c6-3.6,14.39-8.66,17.87-3.45,4,5.93-1.86,11.9-9.15,16.79s-13.91,8-19,2.13L148.5,74c2,1,4.43,0,7-1.75s5.32-4.18,4.24-5.78c-.61-.92-3.22.64-6.58,2.67-6,3.6-14.39,8.67-17.86,3.47-4-5.93,1.86-11.91,9.14-16.81s13.89-8.08,19-2.11l-8.48,5.69c-2-1-4.43,0-7,1.75s-5.35,4.13-4.24,5.78C144.35,67.8,147,66.24,150.31,64.2Z"/><path class="cls-1" d="M199.21,42.18c3.33,7.78-2.08,13.43-10.08,17.56-8.34,4.28-16.46,5.42-20.77-3l-.84-1.62c-4.36-8.37,1.26-14.34,9.58-18.67,8-4.12,15.74-5.27,20.15,1.94L188.38,43c-1.94-1.76-4.67-1-7.64.53-3.51,1.88-6.19,4.06-4.26,7.69l.28.54c1.82,3.65,5.17,2.76,8.73,1,3-1.54,5.18-3.35,4.85-5.94Z"/><path class="cls-1" d="M216,30.4c6.65-2.13,16-5.14,18.19.73,2.52,6.69-4.54,11.16-12.75,14.26S206,50,202.42,43.1L212,39.5c1.73,1.42,4.32,1,7.18-.1s6.14-2.85,5.46-4.66c-.39-1-3.29-.12-7,1.09-6.65,2.13-16,5.14-18.19-.71-2.52-6.69,4.54-11.18,12.75-14.27s15.37-4.69,19,2.29l-9.56,3.61c-1.74-1.45-4.32-1-7.17.1s-6.16,2.8-5.46,4.66C209.35,32.54,212.24,31.61,216,30.4Z"/><path class="cls-1" d="M251.06,19.46c6.85-1.35,16.48-3.26,18,2.82,1.74,6.93-5.79,10.56-14.31,12.7s-15.81,2.85-18.6-4.45L246,28.05c1.55,1.6,4.18,1.46,7.14.72s6.43-2.13,6-4c-.27-1.07-3.25-.49-7.11.28-6.85,1.35-16.47,3.27-18-2.8-1.74-6.93,5.78-10.58,14.3-12.71S264.16,6.65,267,14l-9.9,2.48c-1.56-1.64-4.18-1.46-7.14-.72s-6.44,2.08-6,4C244.23,20.83,247.21,20.24,251.06,19.46Z"/><path class="cls-1" d="M311.65.7l9.73-.7,1,13.38c.68,9.4-6.73,12.7-16.16,13.37s-17.25-1.5-17.89-10.92l-.22-3.05,9.73-.7.17,2.43c.24,4.11,3.67,4.57,7.64,4.34s7.31-1.29,7-5.39Z"/><path class="cls-1" d="M335.3.42l11.58.47,12.39,25.52-11-.44-1.8-4.36L334,21.1l-2.14,4.2-11-.44Zm1.77,14.7,6.86.28-3.12-7.52Z"/><path class="cls-1" d="M371.7,20.88l10-16.1,10.86,1.57L376.34,29.27l-11.47-1.65L355.75,1.05l10.87,1.56Z"/><path class="cls-1" d="M401.14,8.69l11.25,2.81,7,27.5L408.7,36.34l-.88-4.63-12.14-3-2.95,3.68L382.08,29.7ZM399.9,23.45l6.66,1.66-1.54-8Z"/><path class="cls-1" d="M439.19,30.25c6.44,2.72,15.48,6.53,13.32,12.41-2.45,6.72-10.72,5.5-19,2.49S418.84,38.64,420.63,31l9.59,3.5c.39,2.2,2.65,3.56,5.51,4.6s6.52,1.84,7.18,0c.38-1-2.41-2.23-6-3.75-6.43-2.72-15.48-6.54-13.32-12.4,2.45-6.72,10.73-5.52,19-2.51s14.71,6.47,12.9,14.13l-9.59-3.5c-.38-2.23-2.65-3.56-5.51-4.6s-6.5-1.89-7.18,0C432.77,27.55,435.57,28.73,439.19,30.25Z"/><path class="cls-1" d="M485.66,57.21c-4.38,7.24-12.12,6.12-20.14,2-8.34-4.28-14-10.22-9.66-18.63l.83-1.63c4.27-8.43,12.39-7.33,20.76-3.1,8,4.11,13.45,9.73,10.16,17.52l-8.9-4.55c.31-2.6-1.9-4.37-4.88-5.89-3.57-1.76-6.9-2.67-8.72,1l-.28.55c-1.9,3.6.77,5.8,4.29,7.66,3,1.52,5.74,2.26,7.65.48Z"/><path class="cls-1" d="M516.75,60.23a9.45,9.45,0,0,1,2.57,13.11,9,9,0,0,1-4.1,3.4,9.29,9.29,0,0,1-5.18.65l.62,8.86L502,80.46l-.5-7.68-7.23-4.86L490.91,73l-8.09-5.43,13.93-20.75Zm-16-1.93-2.38,3.54,9.87,6.62a2,2,0,0,0,1.59.33,2.07,2.07,0,0,0,1.37-.89,2.13,2.13,0,0,0-.59-3Z"/><path class="cls-1" d="M535.62,74.59,520.07,94.17l-7.63-6.06L528,68.53Z"/><path class="cls-1" d="M558.55,95.29a9.45,9.45,0,1,1-13,13.7l-10.4-9.87-4.2,4.43-7.07-6.71L541.08,78.7ZM548.82,102a2.13,2.13,0,0,0,3-.08,2,2,0,0,0,.58-1.53,2,2,0,0,0-.65-1.48l-8.63-8.19-2.93,3.09Z"/><path class="cls-1" d="M556.26,129.45l13.07-11-7.45-8.87,6.07-5.1,21.17,25.21-6.07,5.1-7.45-8.88-13.08,11Z"/><path class="cls-1" d="M614.29,168.91A9.45,9.45,0,0,1,598,178.45l-7.24-12.38-5.26,3.08-4.92-8.41,21.57-12.62Zm-11.21,3.74a2.14,2.14,0,0,0,2.9.76,2,2,0,0,0,1-1.31,2,2,0,0,0-.21-1.6l-6-10.28-3.67,2.15Z"/><path class="cls-1" d="M610.14,196.93l-7.82,3.41-3.9-8.93,22.92-10,3.89,8.93-7.82,3.41,5.85,13.42,7.82-3.41,3.91,8.95-22.92,10-3.9-9,7.82-3.41Z"/><path class="cls-1" d="M635.64,254.1l-1.74.53c-9,2.74-13.87-3.85-16.58-12.84s-2.26-17.18,6.8-19.85l1.74-.52c9.06-2.75,13.87,3.85,16.58,12.85S644.69,251.4,635.64,254.1Zm-3.36-9.16c3.92-1.11,3.66-4.57,2.57-8.4s-2.88-6.84-6.76-5.62l-.59.18c-3.94,1.12-3.68,4.57-2.59,8.42s2.88,6.82,6.78,5.6Z"/><path class="cls-1" d="M624.82,269.44l16.81-3.05L639.55,255l7.8-1.42,5.89,32.4-7.8,1.42L643.37,276,626.57,279Z"/><path class="cls-1" d="M644.47,323.64l-1.82.13c-9.43.69-12.69-6.81-13.36-16.19s1.57-17.27,11-17.88l1.83-.13c9.44-.69,12.68,6.81,13.35,16.21S653.9,323,644.47,323.64ZM643.2,314c4.07-.22,4.58-3.65,4.36-7.63s-1.31-7.31-5.37-7l-.61.05c-4.09.22-4.6,3.65-4.38,7.65s1.31,7.29,5.39,7Z"/><path class="cls-1" d="M645.55,343.82c-.7,6.94-1.66,16.71-7.92,16.38-7.13-.35-8.42-8.6-8-17.37s1.86-16,9.65-16.51l-.5,10.2c-2,1-2.61,3.58-2.76,6.62s.17,6.77,2.1,6.87c1.1.05,1.41-3,1.79-6.88.7-6.95,1.66-16.71,7.9-16.39,7.13.35,8.44,8.61,8,17.38s-1.83,16-9.67,16.5l.5-10.2c2-1,2.61-3.57,2.76-6.62s-.11-6.76-2.1-6.86C646.22,336.88,645.93,339.91,645.55,343.82Z"/><path class="cls-1" d="M636,372.72l-8.42-1.43,1.63-9.61,24.65,4.18-1.63,9.61L643.83,374l-2.44,14.43,8.41,1.43-1.63,9.63-24.64-4.18,1.63-9.63,8.41,1.43Z"/><path class="cls-1" d="M626,434.55l-1.75-.52c-9.07-2.67-9.49-10.84-6.82-19.85S625,398.56,634,401.3l1.75.52c9.08,2.67,9.49,10.83,6.81,19.86S635.06,437.25,626,434.55Zm2.21-9.52c3.89,1.22,5.58-1.81,6.77-5.61s1.34-7.31-2.58-8.42l-.59-.18c-3.91-1.22-5.59,1.81-6.78,5.63s-1.34,7.29,2.6,8.41Z"/><path class="cls-1" d="M625.76,464.76a9.45,9.45,0,0,1-17.35-7.49l5.68-13.17-5.6-2.41,3.85-8.95,23,9.9Zm-9.66-6.82a2.13,2.13,0,0,0,1.11,2.78,2.15,2.15,0,0,0,2.8-1.1l4.72-10.93L620.82,447Z"/><path class="cls-1" d="M606.42,500.91,585,488.07l5-8.37,21.46,12.84Z"/><path class="cls-1" d="M597.45,514.62l-13.9-9.91L572.23,520.6,565.77,516l17-23.83,20.35,14.51Z"/><path class="cls-1" d="M576.36,542l-12.78-11.33-12.94,14.59L544.71,540l19.42-21.88,18.7,16.59Z"/><path class="cls-1" d="M543.58,575.05l-7.21,6.58-9.06-9.91c-6.4-7-2.52-14.18,4.39-20.51s14.48-9.53,20.83-2.53l9.06,9.92-7.2,6.57-8.65-9.46c-2.74-3.06-5.7-1.31-8.69,1.35s-4.93,5.53-2.11,8.53Z"/><path class="cls-1" d="M512.85,586.9c-5.88,3.77-14.13,9.08-17.76,4-4.16-5.81,1.52-12,8.66-17.06s13.67-8.44,18.94-2.68l-8.31,5.94c-2-.92-4.43.18-6.91,1.95s-5.2,4.33-4.08,5.91c.64.89,3.21-.74,6.51-2.87,5.88-3.77,14.13-9.08,17.75-4,4.15,5.81-1.51,12-8.65,17.07s-13.65,8.48-18.95,2.66l8.31-5.94c2.05,1,4.43-.17,6.91-1.94s5.23-4.29,4.07-5.91C518.71,583.13,516.15,584.77,512.85,586.9Z"/><path class="cls-1" d="M480.48,589.59l8.36,14.89L499,598.81l3.88,6.91-28.71,16.12-3.88-6.91,10.1-5.67L472,594.36Z"/><path class="cls-1" d="M447,633.55a9.44,9.44,0,0,1-12.36-5.08,9.17,9.17,0,0,1-.58-5.31,9.41,9.41,0,0,1,2.33-4.67l-7.73-4.38,9.58-4,6.69,3.83,8-3.35L450.6,605l9-3.75,9.62,23.08Zm10.43-12.26-1.64-3.94-11,4.58a2.11,2.11,0,0,0-1.16,2.78,2.13,2.13,0,0,0,2.8,1.15Z"/><path class="cls-1" d="M422.6,641.94l-11.15,3.16-19.74-20.39,10.56-3,3.07,3.58,12-3.42.73-4.65,10.56-3Zm-6.27-13.43-6.6,1.88,5.31,6.17Z"/><path class="cls-1" d="M387.14,625.08l3.09,16.78,11.39-2.09,1.44,7.79-32.37,6-1.43-7.79,11.39-2.09-3.09-16.79Z"/><path class="cls-1" d="M333,644.82l-.13-1.82c-.7-9.43,6.79-12.7,16.16-13.38s17.27,1.53,17.91,11l.12,1.82c.71,9.44-6.78,12.7-16.17,13.38S333.65,654.25,333,644.82Zm9.69-1.28c.23,4.07,3.66,4.57,7.64,4.34s7.31-1.32,7-5.38l0-.61c-.23-4.09-3.66-4.59-7.66-4.37s-7.29,1.32-6.95,5.4Z"/><path class="cls-1" d="M304.64,655.24a9.43,9.43,0,0,1-9-9.89,9.07,9.07,0,0,1,1.75-5,9.36,9.36,0,0,1,4.1-3.23l-5.1-7.27,10.37.5,4.4,6.33,8.7.42.29-6.1,9.74.47-1.21,25Zm14.68-6.61.2-4.25-11.87-.58a2,2,0,0,0-1.53.54,2.07,2.07,0,0,0-.71,1.48,2.13,2.13,0,0,0,2,2.24Z"/><path class="cls-1" d="M264,649.73l4.53-24.6,9.59,1.77-4.53,24.6Z"/><path class="cls-1" d="M233.72,642.21l-9.4-2.61L231,615.52l10.57,2.92,8.87,18.3L254.49,622l9.4,2.6-6.67,24.09-12.92-3.58-7-15.68Z"/><path class="cls-1" d="M196.14,628.32c-6.37-2.57-8.84-9.87-6.14-16.14s9.52-9.67,15.82-6.93l20.52,8.62-9.68,23.06Zm4.75-6.61,9.85,4.14,3.54-8.45-9.85-4.13c-2.33-1-4.45.37-5.43,2.69S198.56,620.73,200.89,621.71Z"/><path class="cls-1" d="M180.75,621.42l-25.56-14.25,3.11-5.59,17,9.51,1.56-2.8-17-9.5,2.82-5.06,17,9.51,1.56-2.8-17.05-9.5,3.13-5.61,25.56,14.25Z"/><path class="cls-1" d="M142.76,587c-5.48-4.34-13.18-10.43-9.52-15.52,4.15-5.81,11.8-2.43,18.94,2.67s12.43,10.19,8.68,17l-8.31-5.93c.21-2.22-1.6-4.13-4.09-5.91s-5.78-3.51-6.91-1.93c-.63.89,1.74,2.79,4.82,5.22,5.48,4.34,13.17,10.43,9.53,15.5-4.15,5.82-11.81,2.45-19-2.65s-12.45-10.16-8.67-17.06l8.31,5.93c-.23,2.26,1.6,4.14,4.08,5.91s5.76,3.56,6.92,1.94C148.22,591.27,145.84,589.38,142.76,587Z"/><path class="cls-1" d="M113.1,576l16.08-19.14,7.46,6.27-16.08,19.14Z"/><path class="cls-1" d="M105.36,553.38,93.29,541.44l10.08-10.2,3.47,3.43-2.39,3.1c4.07,0,7.93,2.38,10.94,5.36,6.67,6.65,10.23,14,3.56,20.68l-1.28,1.3c-6.63,6.75-14,3.27-20.72-3.33-6.16-6.1-9.58-12.8-4.94-19L99.37,550a4.58,4.58,0,0,0,.7,3.07,15.11,15.11,0,0,0,2.45,3c2.89,2.78,5.82,4.63,8.64,1.69l.43-.43c2.93-2.89,1-5.77-1.78-8.62s-4.64-4.28-7-4l5.58,5.52Z"/><path class="cls-1" d="M65.73,525.21l-6-7.68,19.65-15.46,6.79,8.63-3.7,20,12-9.44,6,7.66L80.81,544.38l-8.29-10.54L76.14,517Z"/><path class="cls-1" d="M47.5,498.64,32.91,471.88l7-3.79,9.93,18.2,2.68-1.46L43.7,468.77l6.42-3.5,8.76,16.06,5.89-3.21,4.67,8.55Z"/><path class="cls-1" d="M27.31,459.12l22.76-10.33,4,8.87L31.34,468Z"/><path class="cls-1" d="M30.05,435.42l-5.77-16,13.5-4.87,1.65,4.59-3.49,1.77c3.68,1.76,6.14,5.56,7.58,9.55,3.16,8.87,3.22,17-5.69,20.21l-1.71.62c-8.9,3.25-14.07-3.07-17.28-11.92-2.94-8.16-3.14-15.68,3.73-19.33l3.51,9.75a4.58,4.58,0,0,0-.68,3.08,15.89,15.89,0,0,0,.89,3.81c1.41,3.74,3.26,6.67,7.08,5.24l.58-.21c3.88-1.34,3.4-4.77,2.09-8.55-1.3-3.62-2.35-5.86-4.63-6.6L34.07,434Z"/><path class="cls-1" d="M11.42,416.54,8.92,404.6l10.24-12.1-14.23-7L2.44,373.57l24.47-5.11,2,9.54-13,2.72,15.05,6.84,1,4.77L20.84,404.61l13.06-2.72,2,9.54Z"/><path class="cls-1" d="M1.22,356.87.4,345.31l24-15.15.78,10.95-4.13,2.27.88,12.49,4.41,1.67.78,10.95Zm14.42-3.39-.48-6.85L8,350.57Z"/><path class="cls-1" d="M3.08,282.94l1.43-12.1,10.88,14.49,14-11.56-1.43,12.11L19.83,292l6.44,7.82-1.43,12.12L14,297.44,0,309l1.43-12.12,8.07-6.11Z"/><path class="cls-1" d="M10.6,245.65c1.54-6.69,8.36-10.26,15-8.59s11,7.89,9.31,14.54l-5.3,21.6L5.31,267.25Zm7.26,3.66-2.54,10.36,8.89,2.18,2.54-10.37c.6-2.45-1.06-4.34-3.5-4.93S18.46,246.85,17.86,249.31Z"/><circle class="cls-1" cx="327.8" cy="328.17" r="146.36"/><path class="cls-2" d="M415.51,277.41V246.22A9.26,9.26,0,0,0,405.37,237a9.52,9.52,0,0,0-8.36,9.61v8.28c-18.16-16.14-42-25.62-66.08-25.62A98.91,98.91,0,0,0,232,328.54c.19,52.53,43,96.71,95.5,98.48,1.11,0,2.22,0,3.31,0a99.15,99.15,0,0,0,92-62.46,9.25,9.25,0,1,0-17.19-6.82,80.62,80.62,0,0,1-77.54,50.73c-42.64-1.41-77.47-37.33-77.61-80a80.35,80.35,0,0,1,80.38-80.69c20.13,0,40.69,8.61,55.74,22.73l-14,.5a9.26,9.26,0,0,0,.63,18.5l32.26-1.13h0c8.85-.32,10.14-3.63,9.95-11"/></g></g></svg>