<svg xmlns="http://www.w3.org/2000/svg" viewBox="0 0 23.62 23.62"><defs><style>.cls-1,.cls-2{fill:#fff;}.cls-2{stroke:#000;stroke-miterlimit:10;}</style></defs><g id="Layer_2" data-name="Layer 2"><g id="Layer_1-2" data-name="Layer 1"><path class="cls-1" d="M11.81,22.62A10.81,10.81,0,1,1,22.62,11.81,10.82,10.82,0,0,1,11.81,22.62Z"/><path d="M11.81,2A9.81,9.81,0,1,1,2,11.81,9.82,9.82,0,0,1,11.81,2m0-2A11.81,11.81,0,1,0,23.62,11.81,11.81,11.81,0,0,0,11.81,0Z"/><path class="cls-2" d="M3.61,18.59a8.61,8.61,0,0,1,8.2-5.36A8.59,8.59,0,0,1,20,18.63"/><circle class="cls-1" cx="11.81" cy="8.81" r="2.58"/><path d="M11.81,6.73A2.08,2.08,0,1,1,9.73,8.81a2.08,2.08,0,0,1,2.08-2.08m0-1a3.08,3.08,0,1,0,3.08,3.08,3.08,3.08,0,0,0-3.08-3.08Z"/></g></g></svg>