<?xml version="1.0" encoding="UTF-8"?><svg xmlns="http://www.w3.org/2000/svg" viewBox="0 0 1202.65 441.6"><defs><style>.d{fill:#fff;}.e{fill:#d7d9da;}.f{fill:#08090d;}.g{fill:#2e3340;}.h{fill:#1e1e1e;}</style></defs><g id="a"/><g id="b"><g id="c"><rect class="g" x="8.54" y="61.91" width="1159.18" height="296.89" rx="44" ry="44" transform="translate(-20.56 70.2) rotate(-6.71)"/><g><rect class="h" x="34.93" y="82.81" width="1159.18" height="296.89" rx="44" ry="44" transform="translate(-22.82 73.43) rotate(-6.71)"/><rect class="f" x="397.03" y="176.41" width="430.35" height="110.22" rx="44" ry="44" transform="translate(-22.87 73.16) rotate(-6.71)"/><rect class="e" x="930.64" y="164.21" width="112.54" height="46.4" rx="19.73" ry="19.73" transform="translate(-15.14 116.67) rotate(-6.71)"/><rect class="e" x="181.22" y="252.44" width="112.54" height="46.4" rx="19.73" ry="19.73" transform="translate(-30.6 29.66) rotate(-6.71)"/><g><path class="d" d="M490.29,253.37c1.65,3.71,4.79,6.08,11.26,5.32s8.65-3.56,8.29-6.62c-.38-3.23-2.43-5.01-11.07-5.44-10.08-.51-12.82-3.34-13.34-7.81-.68-5.78,4.42-9.73,11.58-10.57,10.69-1.26,13.87,4.04,14.63,7.32l-4.71,.55c-.93-2.16-2.68-4.96-9.61-4.14-4.73,.56-7.59,2.53-7.2,5.83,.32,2.69,1.86,4.23,9.47,4.6,12.1,.62,14.45,4.08,14.98,8.63,.62,5.24-3.03,10.21-12.93,11.38-9.19,1.08-14.32-2.56-16.1-8.49l4.74-.56Z"/><path class="d" d="M532.19,258.12l-3.87-32.88,5.56-.65c8.61,9.43,20.77,21.69,23.03,24.85h.09c-.8-4.25-1.36-9.45-1.99-14.79l-1.46-12.38,4.35-.51,3.87,32.88-5.26,.62c-5.66-5.99-20.63-22.2-23.44-25.75h-.09c.74,4.21,1.29,8.87,1.98,14.69l1.58,13.41-4.35,.51Z"/><path class="d" d="M611.21,232.05c1.09,9.29-4.25,17.97-15.28,19.27s-18.11-5.58-19.24-15.22c-1.07-9.12,4.79-17.82,15.34-19.06,10.5-1.24,18.11,5.89,19.18,15.01Zm-29.62,3.34c.83,7.07,5.9,12.97,14.04,12.01s11.51-7.55,10.67-14.68-5.85-12.72-14.08-11.76c-7.67,.9-11.45,7.48-10.63,14.43Z"/><path class="d" d="M660.53,226.25c1.09,9.29-4.26,17.97-15.28,19.27s-18.11-5.58-19.24-15.22c-1.07-9.12,4.79-17.82,15.34-19.06s18.11,5.89,19.18,15.01Zm-29.62,3.34c.83,7.07,5.9,12.97,14.04,12.01s11.51-7.55,10.67-14.68-5.85-12.72-14.08-11.76c-7.67,.9-11.45,7.48-10.63,14.43Z"/><path class="d" d="M674.62,237.92l19.92-28.33-21.85,2.57-.46-3.87,27.92-3.29,.42,3.58-19.74,28.11,23.89-2.81-.22,3.95-29.48,3.47-.4-3.39Z"/><path class="d" d="M742.52,217.84l-19.72,2.32,1.34,11.38,21.75-2.56-.16,4-25.77,3.03-3.87-32.88,25.4-2.99,.46,3.93-20.75,2.44,1.14,9.72,19.72-2.32,.46,3.93Z"/></g></g></g></g></svg>