<?xml version="1.0" encoding="UTF-8"?><svg xmlns="http://www.w3.org/2000/svg" viewBox="0 0 459.47 355.74"><defs><style>.cls-1{fill:#3d261e;opacity:.62;}.cls-2{isolation:isolate;}.cls-3{fill:#eae9e8;}.cls-4{fill:#282625;}.cls-5{fill:#9e672b;opacity:.8;}.cls-6{mix-blend-mode:multiply;}.cls-6,.cls-7{fill:#2e3340;}.cls-8{fill:#d3d3d3;}</style></defs><g class="cls-2"><g id="Layer_2"><g id="Layer_1-2"><g><path class="cls-7" d="M301.1,3.69C215.17-14.04,130.93,33.66,100.12,112.76L21.65,96.57c-6.46-1.33-12.84,2.86-14.18,9.33L.25,140.91c-1.33,6.46,2.86,12.84,9.33,14.18l78.47,16.19c-3.01,84.84,55.47,161.98,141.41,179.71,95.91,19.79,189.69-41.92,209.48-137.82C458.71,117.26,397.01,23.48,301.1,3.69Z"/><g><path class="cls-4" d="M416.79,206.18c-4.04,19.57-12.05,37.31-23.02,52.54-30.72,42.64-84.62,65.65-139.43,54.34-74.37-15.34-122.23-88.07-106.88-162.45,11.81-57.25,57.63-98.79,112.03-107.88,16.27-2.72,33.3-2.53,50.42,1,74.37,15.34,122.23,88.07,106.88,162.45Z"/><path class="cls-3" d="M317.95,4.75C232.02-12.98,147.78,34.71,116.97,113.82l-78.47-16.19c-6.46-1.33-12.84,2.86-14.18,9.33l-7.22,35.01c-1.33,6.46,2.86,12.84,9.33,14.18l78.47,16.19c-3.01,84.84,55.47,161.98,141.41,179.71,95.91,19.79,189.69-41.92,209.48-137.82C475.56,118.32,413.86,24.53,317.95,4.75Zm-63.61,308.32c-74.37-15.34-122.23-88.07-106.88-162.45,11.81-57.25,57.63-98.79,112.03-107.88,16.27-2.72,33.3-2.53,50.42,1,74.37,15.34,122.23,88.07,106.88,162.45-4.04,19.57-12.05,37.31-23.02,52.54-30.72,42.64-84.62,65.65-139.43,54.34Z"/></g><path class="cls-8" d="M416.79,206.18c-4.04,19.57-12.05,37.31-23.02,52.54-30.72,42.64-84.62,65.65-139.43,54.34-74.37-15.34-122.23-88.07-106.88-162.45,11.81-57.25,57.63-98.79,112.03-107.88,16.27-2.72,33.3-2.53,50.42,1,74.37,15.34,122.23,88.07,106.88,162.45Z"/><g><path class="cls-1" d="M237.88,86.2c1.85-2.53,1.92-5.58,4.01-8.58,2.14-3.06,5.41-5.34,8.85-6.74,5.86-2.39,12.33-2.87,18.3-4.96,8.56-3,15.95-9.23,24.9-10.75,15.31-2.61,30.01,9.25,45.49,7.92,2.78-.24,5.57-.91,8.34-.59s5.67,1.97,6.32,4.69c2.12,.28,4.36-.48,5.86-2.01-33.57-22.99-77.64-29.93-116.64-18.35s-72.16,41.42-87.75,79-13.31,82.13,6.05,117.92c19.35,35.79,55.39,62.09,95.37,69.61l23.55-36.18c-9.68-4.35-20.89-5.15-31.09-2.24-4.51,1.29-9.01,3.3-13.68,2.88-5.96-.54-10.78-4.88-15.11-9.02-14.96-14.31-30.36-30.06-34.77-50.28-.08-.36-.15-.72-.22-1.08-1.64-8.92-5.03-17.43-9.62-25.25-2.72-4.64-4.17-10.26-4.17-15.62,0-11.15,4.47-21.74,7.18-32.56,2.83-11.31,4-23.61,11.07-32.88,4.65-6.09,11.35-10.08,18.4-12.8,7.62-2.94,17.41-3.02,23.81-8l2.36-1.45c1.49-.79,2.48-1.7,3.21-2.68Z"/><path class="cls-5" d="M416.07,146.47c-3.23-13.5-8.61-25.94-15.47-37.78-1.73-2.98-6.26-1.88-6.39,1.56-.04,1.14-.09,2.3-.17,3.51-.09,1.3-.25,2.58-.47,3.85-.69,4.1,.19,8.31,2.4,11.84l.03,.05c5.27,8.45,9.94,17.45,11.96,27.19s1.17,20.38-4.01,28.88c-1.19,1.95-2.76,3.82-4.58,5.28-5.39,4.34-9.3,10.28-10.65,17.07-1.64,8.27-4.65,16.25-7.62,24.28-5.26,14.24-15.14,27.18-26.91,36.68-5.72,4.61-11.86,7.59-18.97,9.35-7.28,1.8-15.04,2.58-21.81,6-5.76,2.91-12.61,2.72-16.43-1.39-3.33-3.58-8.08-5.38-12.96-5.63-.43-.02-.85-.06-1.28-.1-.68-.07-1.41-.16-2,.19-.42,.25-.69,.67-.95,1.08-4.47,7.13-8.7,14.91-13.91,21.52h0c-.65,1.01-6.98,12.21-8.63,13.58-.08,.06-.04,.18,.06,.2,18.35,3.41,37.69,3.11,57.01-1.51,73.86-17.66,119.42-91.85,101.76-165.7Z"/></g><path class="cls-6" d="M400.85,248.19c-10.13,17.22-23.44,31.43-38.74,42.31-42.83,30.45-101.27,34.84-149.5,6.46l7.65-.83c113.51-12.38,180.87-133.06,131.82-236.17h0c65.45,38.51,87.28,122.79,48.77,188.24Z"/></g></g></g></g></svg>