<?xml version="1.0" encoding="UTF-8"?><svg xmlns="http://www.w3.org/2000/svg" viewBox="0 0 1284.17 811.25"><defs><style>.d{fill:#9c9c9c;}.e{fill:#d7d9da;}.f{fill:#ccc;}.g{fill:#2e3340;}</style></defs><g id="a"/><g id="b"><g id="c"><g><path class="g" d="M1194.23,290.73l-511.16,208.46c-35.63,13.98-68.87,33.21-98.67,56.96-.84,24.97-5.29,50.23-13.65,75.13-46.41,138.17-196.04,212.56-334.21,166.16-138.17-46.41-212.56-196.04-166.15-334.21,46.4-138.17,196.03-212.56,334.2-166.16,67.16,22.56,119.25,69.49,149.72,127.65,30.89-4.02,61.25-11.81,90.39-23.26l511.16-208.46c14.02-5.5,30,1.47,35.51,15.49l18.35,46.74c5.5,14.02-1.47,30-15.49,35.5Z"/><path class="g" d="M1267.84,411.75c-54.9,163.48-231.94,251.48-395.4,196.58-81.64-27.42-144.45-85.29-180.05-156.71-14.19-28.47-24.06-59.09-29.06-90.8-7.6-48.05-4.04-98.6,12.52-147.9,54.9-163.48,231.94-251.49,395.42-196.59,67.8,22.77,122.61,66.55,159.64,121.66,17.81,26.5,31.5,55.62,40.53,86.3,17.49,59.3,17.58,124.4-3.6,187.46Z"/><path class="e" d="M1239.97,412.93c-54.9,163.48-231.94,251.48-395.4,196.58-72.2-24.25-129.67-72.32-166.62-132.51-4.83-7.87-9.31-15.94-13.42-24.2-11.55-23.16-20.24-47.76-25.76-73.2-1.26-5.82-2.37-11.69-3.3-17.6-7.6-48.05-4.04-98.6,12.52-147.9,54.9-163.48,231.94-251.49,395.42-196.59,67.8,22.77,122.61,66.55,159.64,121.66,3.33,4.96,6.52,10.01,9.56,15.14,13.22,22.31,23.63,46.22,30.98,71.16,2.6,8.83,4.83,17.79,6.64,26.86,10.4,51.79,7.78,106.93-10.24,160.6Z"/><path class="g" d="M1250.21,252.34l-572.27,224.67c-4.83-7.87-9.31-15.94-13.42-24.2-11.55-23.16-20.24-47.76-25.76-73.2l573.84-225.28c13.22,22.31,23.63,46.22,30.98,71.16,2.6,8.83,4.83,17.79,6.64,26.86Z"/><path class="d" d="M1242.22,138.99l18.35,46.74c5.5,14.02-1.47,30-15.49,35.5l-640.93,251.63c-49.91,19.6-95.15,49.46-132.78,87.66l-6.67,6.76-32.68-83.24-32.68-83.24,9.49,.42c53.57,2.39,107.04-6.5,156.95-26.09L1206.72,123.5c14.02-5.5,30,1.47,35.51,15.49Z"/><circle class="f" cx="263.99" cy="547.26" r="263.92"/><circle class="d" cx="371.69" cy="483.14" r="130.44"/><circle class="f" cx="417.5" cy="466.09" r="96.91"/></g></g></g></svg>