<?xml version="1.0" encoding="UTF-8"?><svg xmlns="http://www.w3.org/2000/svg" viewBox="0 0 407.18 95.88"><g id="a"/><g id="b"><g id="c"><g><path d="M.2,72.77s.71-6.99,.71-13.28v-8.62h1.52v5.68c0,8.11,8.11,15.41,20.47,15.41,9.32,0,16.52-4.05,16.52-11.86C39.43,42.77,0,50.37,0,25.14,0,13.48,7.4,5.07,21.69,5.07c7.4,0,11.76,2.43,14.29,4.66,2.84-.1,4.16-1.22,5.27-3.95h1.32s-1.93,9.83-1.93,14.19v6.18h-1.52v-5.98c0-7.6-6.18-13.58-17.53-13.58-10.44,0-16.32,4.76-16.32,12.26,0,17.23,39.53,9.02,39.53,34.87,0,10.44-7.3,19.76-21.89,19.76-7.7,0-12.87-2.53-16.01-5.17-3.65,0-4.66,1.93-5.37,4.46H.2Z"/><path d="M84.06,59.39c0,3.65-1.42,7.09-4.26,9.73-2.64,2.64-6.59,4.36-12.47,4.36-11.96,0-20.98-6.59-20.98-23.21s8.41-23.82,21.99-23.82c9.32,0,16.22,3.85,16.22,9.83,0,3.55-2.33,7.3-7.91,7.3-1.72,0-2.94-.3-3.95-.71v-.81c3.14,.71,4.26-2.53,4.26-6.39,0-4.76-3.24-7.91-8.62-7.91-7.3,0-10.24,5.98-10.24,21.89s2.84,22.3,10.54,22.3c3.55,0,7.2-1.11,9.83-3.55,2.53-2.23,4.05-5.27,4.05-9.02h1.52Z"/><path d="M84.57,71.25h6.69V28.68h-6.69v-1.52h17.84v10.74h.2c1.93-5.47,5.88-11.45,13.18-11.45,5.68,0,10.24,3.45,10.24,9.32,0,5.57-3.85,8.61-8.31,8.61-1.11,0-2.43-.2-3.75-.61v-.81c3.14,.51,3.75-3.45,3.75-6.79,0-4.76-1.52-7.4-4.56-7.4-2.74,0-5.17,2.13-7.09,5.27-2.23,3.65-3.45,8.61-3.45,11.35v25.85h7.8v1.52h-25.84v-1.52Z"/><path d="M153.03,65.17c-2.03,3.95-6.69,8.31-14.09,8.31-6.59,0-13.78-2.94-13.78-11.35,0-10.95,13.89-14.49,26.15-14.49h1.01v-10.64c0-5.88-1.72-9.22-7.91-9.22s-8.61,2.53-8.61,7.7c0,3.35,1.32,6.18,4.76,5.57v.81s-2.23,.71-4.66,.71c-4.76,0-8.31-2.33-8.31-6.59,0-5.68,5.88-9.53,17.03-9.53,13.78,0,19.05,5.07,19.05,13.89v26.25c0,2.84,.61,4.36,2.63,4.36,3.14,0,4.46-3.65,4.46-6.99h1.52c0,6.49-3.75,9.53-9.12,9.53-5.68,0-9.53-3.04-9.93-8.31h-.2Zm-.71-16.01h-1.32c-4.66,0-7.6,1.01-9.73,2.43-2.94,2.03-4.26,5.57-4.26,10.54,0,6.28,1.93,8.92,5.37,8.92,1.72,0,3.45-.71,5.17-1.82,2.53-1.82,4.76-4.87,4.76-7.09v-12.97Z"/><path d="M220.5,1.52h-6.79V0h18.14V35.37h.2c2.43-5.17,6.79-8.92,14.6-8.92,12.16,0,18.14,8.21,18.14,22.09,0,17.94-9.83,24.93-21.99,24.93-6.59,0-11.66-2.84-14.9-7.8-3.75,1.62-5.37,5.37-5.88,7.8h-1.52V1.52Zm11.35,56.66c0,10.14,4.36,13.78,10.74,13.78,6.99,0,10.34-4.76,10.34-23.11,0-15.51-2.74-20.27-9.22-20.27-6.89,0-11.86,6.99-11.86,14.8v14.8Z"/><path d="M266.36,50.27c0-14.59,7.09-23.82,22.81-23.82s22.8,8.82,22.8,23.21c0,15.3-8.62,23.82-22.8,23.82-15.31,0-22.81-9.02-22.81-23.21Zm33.65-.61c0-15.81-2.43-21.89-10.84-21.89s-10.85,6.28-10.85,22.5,2.63,21.89,10.85,21.89,10.84-6.39,10.84-22.5Z"/><path d="M313.53,50.27c0-14.59,7.09-23.82,22.81-23.82s22.8,8.82,22.8,23.21c0,15.3-8.62,23.82-22.8,23.82-15.31,0-22.81-9.02-22.81-23.21Zm33.65-.61c0-15.81-2.43-21.89-10.84-21.89s-10.85,6.28-10.85,22.5,2.63,21.89,10.85,21.89,10.84-6.39,10.84-22.5Z"/><path d="M354.07,71.25h6.79V1.52h-6.79V0h18.14V46.83h2.03l15.1-13.89c2.33-2.13,2.03-4.26-1.42-4.26h-1.32v-1.52h16.52v1.52h-2.03c-3.95,0-7.2,2.03-9.73,4.46l-9.02,8.31,20.88,29.8h3.95v1.52h-21.08v-1.52h4.16l-16.01-22.91h-2.03v22.91h5.98v1.52h-24.12v-1.52Z"/></g><path d="M167.24,94.36h6.79V28.68h-6.79v-1.52h17.94v9.43h.2c2.23-5.78,6.59-10.13,14.8-10.13,12.77,0,18.65,8.72,18.65,22.8,0,15.3-7.7,24.22-20.17,24.22-7.4,0-11.25-3.85-13.07-7.8h-.2v28.68h6.79v1.52h-24.93v-1.52Zm18.14-36.59c0,6.69,3.65,13.68,11.15,13.68s10.44-6.89,10.44-22.4-2.84-20.47-9.53-20.47c-7.2,0-12.06,7.7-12.06,15.91v13.28Z"/><path d="M407.18,84.54v.66l-15,5.67c-.44,.16-.9-.15-.9-.62v-1.78h-.9c0,1.52-1.23,2.74-2.74,2.74h-44.42c-.9,0-1.7-.44-2.2-1.11H201.36v-1.4h-1.36c-2.12,0-3.83-1.71-3.83-3.83,0-1.05,.42-2.01,1.12-2.7,.7-.7,1.66-1.12,2.71-1.12h1.36v-1.41h139.66c.49-.67,1.29-1.11,2.19-1.11h44.42c1.51,0,2.74,1.23,2.74,2.74h.9v-1.77c0-.47,.47-.79,.9-.63l15,5.67Z"/></g></g></svg>