<?xml version="1.0" encoding="UTF-8"?><svg id="Layer_2" xmlns="http://www.w3.org/2000/svg" viewBox="0 0 461.2 370"><defs><style>.cls-1{fill:#eae9e8;}.cls-2{fill:#282625;}.cls-3{fill:#9e672b;}.cls-4{fill:#2e3340;}.cls-5{fill:#3d261e;}</style></defs><g id="Layer_1-2"><path class="cls-4" d="M266.92,0C179.18,0,106.32,63.73,92.12,147.43H12c-6.6,0-12,5.4-12,12v35.75c0,6.6,5.4,12,12,12H92.12c14.2,83.7,87.06,147.43,174.8,147.43,97.93,0,177.31-79.38,177.31-177.3S364.85,0,266.92,0Z"/><g><path class="cls-2" d="M421.39,192.7c0,19.98-4.26,38.97-11.93,56.11-21.47,47.97-69.61,81.39-125.57,81.39-75.94,0-137.5-61.56-137.5-137.5,0-58.46,36.48-108.4,87.92-128.29,15.38-5.95,32.1-9.21,49.58-9.21,75.94,0,137.5,61.56,137.5,137.5Z"/><path class="cls-5" d="M286.35,330.21c-52.55,.91-103.23-28.51-126.98-79.18-32.22-68.77-2.59-150.63,66.18-182.85,52.94-24.8,113.64-12.95,153.47,25.19l-92.68,236.84Z"/><path class="cls-1" d="M283.89,15.39c-87.74,0-160.6,63.73-174.8,147.43H28.97c-6.6,0-12,5.4-12,12v35.75c0,6.6,5.4,12,12,12H109.09c14.2,83.7,87.06,147.43,174.8,147.43,97.93,0,177.31-79.38,177.31-177.3S381.82,15.39,283.89,15.39Zm0,314.81c-75.94,0-137.5-61.56-137.5-137.5,0-58.46,36.48-108.4,87.92-128.29,15.38-5.95,32.1-9.21,49.58-9.21,75.94,0,137.5,61.56,137.5,137.5,0,19.98-4.26,38.97-11.93,56.11-21.47,47.97-69.61,81.39-125.57,81.39Z"/><path class="cls-3" d="M342.23,317.21c-18.09,8.48-37.1,12.68-55.87,13l92.68-236.84c11.91,11.4,21.96,25.16,29.37,40.99,32.22,68.77,2.59,150.63-66.18,182.85Z"/></g></g></svg>