<?xml version="1.0" encoding="UTF-8"?><svg id="Layer_2" xmlns="http://www.w3.org/2000/svg" viewBox="0 0 240.96 553.75"><defs><style>.cls-1{fill:#161515;}.cls-2{fill:#282625;}.cls-3{fill:#e5e5e5;}.cls-4{fill:#2e3340;}</style></defs><g id="Layer_1-2"><g><rect class="cls-4" x="208.59" y="2.66" width="28.34" height="25.53" rx="5.49" ry="5.49" transform="translate(20.86 -79.94) rotate(21.32)"/><rect class="cls-4" x="109.44" y="-2.23" width="39.06" height="515.87" transform="translate(101.8 -29.39) rotate(21.32)"/><rect class="cls-4" x="183.38" y="37.81" width="11.66" height="127.17" transform="translate(49.82 -61.86) rotate(21.32)"/><path class="cls-4" d="M16.75,548.77l43.65-53.04c1.18-1.44,.62-3.61-1.12-4.28l-38.75-15.12c-1.73-.68-3.62,.54-3.72,2.39l-3.82,68.59,3.75,1.46Z"/><rect class="cls-4" x="43.12" y="328.75" width="50.55" height="164.3" rx="3.7" ry="3.7" transform="translate(154.09 3.25) rotate(21.32)"/><path class="cls-4" d="M14,550.6l2.59-3.15c.07-.09,.04-.21-.07-.25l-2.3-.9c-.1-.04-.22,.03-.22,.14l-.23,4.08,.22,.09Z"/></g><g><rect class="cls-1" x="195.59" y="5.82" width="28.34" height="25.53" rx="5.49" ry="5.49" transform="translate(21.12 -75) rotate(21.32)"/><rect class="cls-2" x="96.44" y=".93" width="39.06" height="515.87" transform="translate(102.06 -24.45) rotate(21.32)"/><rect class="cls-3" x="170.38" y="40.97" width="11.66" height="127.17" transform="translate(50.08 -56.91) rotate(21.32)"/><path class="cls-3" d="M3.75,551.92l43.65-53.04c1.18-1.44,.62-3.61-1.12-4.28l-38.75-15.12c-1.73-.68-3.62,.54-3.72,2.39l-3.82,68.59,3.75,1.46Z"/><rect class="cls-1" x="30.12" y="331.91" width="50.55" height="164.3" rx="3.7" ry="3.7" transform="translate(154.35 8.2) rotate(21.32)"/><path class="cls-2" d="M1,553.75l2.59-3.15c.07-.09,.04-.21-.07-.25l-2.3-.9c-.1-.04-.22,.03-.22,.14l-.23,4.08,.22,.09Z"/></g></g></svg>